<svg width="187" height="116" viewBox="0 0 187 116" fill="none" xmlns="http://www.w3.org/2000/svg">
<path d="M0.320042 115.129C0.132082 115.129 0 114.992 0 114.809V94.6112C0 93.8695 0.253999 93.2447 0.777239 92.7214C1.30048 92.1982 1.94056 91.929 2.68224 91.929H11.2624C13.7922 91.929 15.682 92.4878 16.9113 93.58C18.2118 94.7433 18.8671 96.4146 18.8671 98.6041C18.8671 100.087 18.5471 101.302 17.907 102.262V102.246C17.4498 103.039 16.8605 103.577 15.9868 103.984C16.6116 104.339 17.1856 104.863 17.5057 105.401C17.9121 106.128 18.1966 107.271 18.2829 108.891L18.4201 111.589V111.822C18.4201 112.279 18.4201 112.782 18.4861 113.24C18.603 113.895 18.7909 114.317 19.111 114.504C19.365 114.672 19.2786 115.129 18.9433 115.129H13.8328C13.716 115.129 13.5788 115.028 13.528 114.941C13.3096 114.469 13.1572 113.981 13.1064 113.458C13.02 112.782 12.9692 112.295 12.9692 111.975L12.9032 109.562V109.577C12.8168 108.378 12.5832 107.504 12.2276 106.966C11.8059 106.58 11.0287 106.341 9.90092 106.341H5.29844V114.804C5.29844 114.992 5.16128 115.124 4.9784 115.124H0.32512L0.320042 115.129ZM5.29336 101.759H10.4191C11.496 101.759 12.2885 101.54 12.8118 101.119C13.2994 100.733 13.5534 100.072 13.5534 99.1476C13.5534 98.2231 13.2994 97.5474 12.8118 97.1563C12.3393 96.6838 11.6332 96.4502 10.6731 96.4502H5.29336V101.759Z" fill="#D0B763"/>
<path d="M20.4013 115.129C20.2134 115.129 20.0813 114.992 20.0813 114.809V94.6112C20.0813 93.8695 20.3353 93.2447 20.8585 92.7214C21.3818 92.1982 22.0219 91.929 22.7635 91.929H36.7894C36.9774 91.929 37.1095 92.0661 37.1095 92.249V96.125C37.1095 96.313 36.9723 96.4451 36.7894 96.4451H25.3239V100.641H33.7719C33.9599 100.641 34.0919 100.778 34.0919 100.961V102.48C34.0919 103.222 33.8379 103.862 33.3147 104.385C32.7915 104.908 32.1666 105.162 31.4097 105.162H25.3239V110.273H36.7894C36.9774 110.273 37.1095 110.425 37.1095 110.608V114.804C37.1095 114.992 36.9723 115.124 36.7894 115.124H20.4013V115.129Z" fill="#D0B763"/>
<path d="M51.4705 91.934C51.5873 91.934 51.7397 92.0356 51.7905 92.1525L59.9846 114.692C60.0506 114.911 59.9185 115.129 59.6645 115.129H54.7573C54.6201 115.129 54.488 115.012 54.4372 114.896L53.0047 110.476H44.709L43.3273 114.896C43.2765 115.012 43.1596 115.129 43.0225 115.129H38.0999C37.8459 115.129 37.7139 114.911 37.7951 114.692L45.2627 93.6511C45.6996 92.503 46.5429 91.929 47.8078 91.929H51.4654L51.4705 91.934ZM48.8594 97.8167L46.1619 106.026H51.5416L48.8594 97.8167Z" fill="#D0B763"/>
<path d="M61.3359 115.129C61.1479 115.129 61.0006 114.992 61.0006 114.809V94.6112C61.0006 93.8848 61.2699 93.2447 61.7931 92.7214C62.3163 92.1982 62.9564 91.929 63.6981 91.929H65.9892C66.1771 91.929 66.3092 92.0661 66.3092 92.249V110.273H76.9975C77.1855 110.273 77.3176 110.425 77.3176 110.608V114.804C77.3176 114.992 77.1804 115.124 76.9975 115.124H61.3359V115.129Z" fill="#D0B763"/>
<path d="M90.551 107.459C90.739 107.459 90.8558 107.596 90.871 107.743C91.0387 108.972 91.4959 109.816 92.2376 110.273C93.0656 110.847 94.2086 111.131 95.6615 111.131C96.9264 111.131 97.8865 110.913 98.5622 110.456C99.1667 110.049 99.4715 109.445 99.4715 108.637C99.4715 107.423 97.5817 106.397 93.792 105.554L93.6244 105.467L93.6904 105.482L93.5533 105.447L93.1469 105.345L93.1621 105.36C90.8863 104.888 89.3674 104.35 88.5749 103.791L88.6104 103.806C87.6656 103.283 87.0102 102.526 86.6394 101.53L86.675 101.581C86.1873 100.753 85.9689 99.6912 85.9689 98.4111C85.9689 96.1708 86.7461 94.4131 88.3107 93.1177C89.8601 91.8883 92.0852 91.2635 95.0062 91.2635C97.7544 91.2635 99.8779 91.9036 101.382 93.1837C102.951 94.601 103.774 96.44 103.861 98.7159C103.861 98.9038 103.723 99.0714 103.541 99.0714H100.909C99.7814 99.0714 98.9533 98.5482 98.4453 97.5017C98.2574 97.0953 97.9729 96.7753 97.6376 96.5061C96.8959 96.0184 95.885 95.7136 94.6201 95.7136C93.3552 95.7136 92.5271 95.9473 91.9886 96.3689C91.4298 96.7905 91.1454 97.3798 91.1454 98.1367C91.1454 99.1324 92.3239 99.9046 94.7014 100.448C95.4278 100.667 95.9511 100.783 96.3016 100.834C97.6529 101.291 98.7654 101.561 99.4867 101.744L99.4512 101.728L99.7864 101.815L101.707 102.643C102.652 103.232 103.342 103.923 103.866 104.817C104.389 105.813 104.643 106.874 104.643 107.972C104.643 110.415 103.815 112.34 102.149 113.737C100.548 115.002 98.2523 115.642 95.2703 115.642C92.2884 115.642 89.9414 114.987 88.3768 113.671H88.392C86.7055 112.371 85.7809 110.415 85.6285 107.804C85.6133 107.601 85.7657 107.448 85.9638 107.448H90.551V107.459Z" fill="#D0B763"/>
<path d="M110.769 107.072V114.809C110.769 114.997 110.617 115.129 110.434 115.129H105.781C105.593 115.129 105.461 114.992 105.461 114.809V94.6112C105.461 93.8848 105.73 93.2447 106.253 92.7214C106.777 92.1982 107.417 91.929 108.143 91.929H115.814C118.328 91.929 120.183 92.569 121.412 93.8695C122.712 95.1497 123.353 97.0394 123.353 99.5337C123.353 101.876 122.728 103.75 121.483 105.132C120.254 106.432 118.481 107.072 116.154 107.072H110.774H110.769ZM110.769 102.353H114.965C116.093 102.353 116.886 102.119 117.358 101.647C117.846 101.261 118.1 100.499 118.1 99.4067C118.1 98.5126 117.866 97.7354 117.394 97.1969C116.87 96.7905 116.078 96.5213 115.219 96.5213H110.769V102.353Z" fill="#D0B763"/>
<path d="M137.795 91.934C137.912 91.934 138.064 92.0356 138.115 92.1525L146.309 114.692C146.375 114.911 146.243 115.129 145.989 115.129H141.082C140.945 115.129 140.812 115.012 140.762 114.896L139.329 110.476H131.033L129.652 114.896C129.601 115.012 129.484 115.129 129.347 115.129H124.424C124.17 115.129 124.038 114.911 124.12 114.692L131.587 93.6511C132.024 92.503 132.867 91.929 134.132 91.929H137.79L137.795 91.934ZM135.184 97.8167L132.486 106.026H137.866L135.184 97.8167Z" fill="#D0B763"/>
<path d="M167.803 106.686C167.99 106.686 168.138 106.839 168.123 107.042C167.919 109.755 166.893 111.878 165.069 113.433C163.215 114.916 160.787 115.658 157.77 115.658C154.33 115.658 151.597 114.51 149.728 112.472C147.924 110.43 146.964 107.448 146.964 103.537C146.964 99.6252 147.96 96.4908 149.799 94.4639C151.755 92.3709 154.539 91.2787 158.161 91.2787C161.112 91.2787 163.469 92.0204 165.257 93.519C166.944 95.0024 167.919 96.9937 168.123 99.6404C168.138 99.8284 167.985 99.996 167.803 99.996H164.988C163.81 99.996 162.966 99.4728 162.458 98.4466V98.4618C162.189 97.9234 161.834 97.4509 161.447 97.0445C160.619 96.44 159.527 96.1352 158.161 96.1352C156.256 96.1352 154.788 96.76 153.761 97.9894L153.777 97.9742C152.781 99.2391 152.278 101.093 152.278 103.537C152.278 105.98 152.786 107.718 153.777 108.983C154.706 110.247 156.119 110.872 158.044 110.872C159.36 110.872 160.457 110.552 161.315 109.897C162.093 109.308 162.646 108.312 162.966 106.93C163.017 106.793 163.154 106.697 163.286 106.697H167.803V106.686Z" fill="#D0B763"/>
<path d="M169.372 115.129C169.184 115.129 169.052 114.992 169.052 114.809V94.6112C169.052 93.8695 169.306 93.2447 169.829 92.7214C170.353 92.1982 170.993 91.929 171.734 91.929H185.76C185.948 91.929 186.08 92.0661 186.08 92.249V96.125C186.08 96.313 185.943 96.4451 185.76 96.4451H174.295V100.641H182.743C182.931 100.641 183.063 100.778 183.063 100.961V102.48C183.063 103.222 182.809 103.862 182.286 104.385C181.762 104.908 181.138 105.162 180.381 105.162H174.295V110.273H185.76C185.948 110.273 186.08 110.425 186.08 110.608V114.804C186.08 114.992 185.943 115.124 185.76 115.124H169.372V115.129Z" fill="#D0B763"/>
<path d="M99.06 15.6883H95.2399C94.7657 15.6883 94.3813 16.0727 94.3813 16.5468V21.0375C94.3813 21.5117 94.7657 21.8961 95.2399 21.8961H99.06C99.5342 21.8961 99.9186 21.5117 99.9186 21.0375V16.5468C99.9186 16.0727 99.5342 15.6883 99.06 15.6883Z" fill="#D0B763"/>
<path d="M91.6838 15.6883H87.8636C87.3895 15.6883 87.0051 16.0727 87.0051 16.5468V21.0375C87.0051 21.5117 87.3895 21.8961 87.8636 21.8961H91.6838C92.158 21.8961 92.5423 21.5117 92.5423 21.0375V16.5468C92.5423 16.0727 92.158 15.6883 91.6838 15.6883Z" fill="#D0B763"/>
<path d="M99.06 23.2727H95.2399C94.7657 23.2727 94.3813 23.6571 94.3813 24.1313V28.622C94.3813 29.0961 94.7657 29.4805 95.2399 29.4805H99.06C99.5342 29.4805 99.9186 29.0961 99.9186 28.622V24.1313C99.9186 23.6571 99.5342 23.2727 99.06 23.2727Z" fill="#D0B763"/>
<path d="M91.6838 23.2727H87.8636C87.3895 23.2727 87.0051 23.6571 87.0051 24.1313V28.622C87.0051 29.0961 87.3895 29.4805 87.8636 29.4805H91.6838C92.158 29.4805 92.5423 29.0961 92.5423 28.622V24.1313C92.5423 23.6571 92.158 23.2727 91.6838 23.2727Z" fill="#D0B763"/>
<path d="M137.373 42.8358L95.0519 0.51435C94.3661 -0.17145 93.2586 -0.17145 92.5728 0.51435L91.3333 1.75387L49.5554 43.5369C48.8696 44.2227 48.8696 45.3301 49.5554 46.0159C50.2412 46.7017 51.3486 46.7017 52.0344 46.0159L92.5728 5.47751C93.2586 4.79171 94.3661 4.79171 95.0519 5.47751L134.889 45.3149C135.575 46.0007 136.682 46.0007 137.368 45.3149C138.054 44.6291 138.054 43.5216 137.368 42.8358H137.373Z" fill="#D0B763"/>
<path d="M59.8576 79.5083V35.5613C59.8576 34.3776 60.2641 33.3616 61.1073 32.4828C61.9506 31.6395 62.9666 31.2331 64.1858 31.2331H82.4484C87.4878 31.2331 91.2063 32.2796 93.5431 34.4132C95.9765 36.6128 97.1956 39.8234 97.1956 44.055C97.1956 46.8947 96.5861 49.2315 95.3669 51.0908C94.3204 52.818 92.0496 54.2709 88.4987 55.4901C91.7804 56.6077 93.7768 57.8574 94.5185 59.1782C95.2957 60.4634 95.7682 62.7291 95.9409 65.9752L96.2457 71.6902V72.1322C96.2457 73.1786 96.2457 74.3979 96.3828 75.3783C96.5505 76.3587 96.7893 77.136 97.1245 77.7811H88.331C87.9907 77.0394 87.7875 76.2571 87.7215 75.4799C87.5538 73.9915 87.4522 72.9755 87.4522 72.4675L87.315 67.3265C87.1474 64.3496 86.5378 62.2516 85.4863 60.9359C84.3026 59.7167 82.3062 59.1071 79.4969 59.1071H68.3666V79.5134H59.8424L59.8576 79.5083ZM68.3819 52.1373H80.6247C83.2307 52.1373 85.2577 51.5633 86.6445 50.4101C88.0313 49.2925 88.707 47.5704 88.707 45.1675C88.707 42.7647 87.9653 41.0731 86.6445 39.8894C85.3948 38.7058 83.5 38.0606 81.1987 38.0606H68.3819V52.1322V52.1373Z" fill="#D0B763"/>
<path d="M95.6565 64.309C96.1645 67.0166 98.5775 68.9927 100.371 70.1103V70.0748C102.367 71.4616 105.07 72.1728 108.423 72.1728C111.435 72.1728 113.767 71.6293 115.357 70.5472C117.048 69.4296 117.892 67.738 117.892 65.4723C117.892 62.089 113.563 59.4525 104.872 57.5577L104.704 57.4561L104.333 57.3545C104.094 57.2529 103.79 57.2529 103.419 57.1513C98.7857 56.1708 95.6412 55.0888 94.0156 53.9051C92.4256 53.0619 91.2775 51.7411 90.6019 49.9834C89.6875 48.3578 89.215 46.2953 89.215 43.7604C89.215 39.3967 90.7035 36.0134 93.7159 33.5445L93.6803 33.5801C96.7588 31.1772 101.189 29.9631 107.041 29.9631C112.451 29.9631 116.713 31.2839 119.69 33.6817C122.428 36.2521 124.12 39.671 124.425 43.7604H119.588C117.831 43.7604 116.408 42.7799 115.595 41.1899C115.087 40.2095 114.376 39.3306 113.467 38.5839C111.674 37.2986 109.271 36.6535 106.192 36.6535C103.282 36.6535 101.153 37.2275 99.7662 38.3451L99.8017 38.3095C98.2117 39.4932 97.4345 41.1188 97.4345 43.1813C97.4345 46.0565 100.31 48.1546 106.06 49.4703L105.994 49.4347C107.62 49.8767 108.87 50.1764 109.581 50.278C112.456 51.2229 114.722 51.8325 116.246 52.2084L116.957 52.3761L120.675 53.9661C122.403 55.0481 123.754 56.3994 124.699 58.025L124.663 57.9895C125.644 59.8487 126.152 61.8807 126.152 64.0753C126.152 68.8454 124.562 72.5995 121.351 75.2716L121.387 75.2361C118.171 77.7405 113.574 78.9902 107.62 78.9902C101.666 78.9902 87.9501 79.4931 87.9501 79.4931C87.9501 79.4931 87.3862 69.6531 87.0154 64.6493L95.6666 64.2988L95.6565 64.309Z" fill="#D0B763"/>
<path d="M125.791 33.5801H123.805C123.384 33.5801 123.043 33.9212 123.043 34.3421V78.7464C123.043 79.1672 123.384 79.5084 123.805 79.5084H125.791C126.212 79.5084 126.553 79.1672 126.553 78.7464V34.3421C126.553 33.9212 126.212 33.5801 125.791 33.5801Z" fill="#D0B763"/>
<path d="M60.2844 76.9125V78.8987C60.2844 79.3196 60.6256 79.6607 61.0464 79.6607H124.983C125.404 79.6607 125.745 79.3196 125.745 78.8987V76.9125C125.745 76.4916 125.404 76.1505 124.983 76.1505H61.0464C60.6256 76.1505 60.2844 76.4916 60.2844 76.9125Z" fill="#D0B763"/>
</svg>
