<?xml version="1.0" encoding="UTF-8"?>
<svg id="Layer_5" data-name="Layer 5" xmlns="http://www.w3.org/2000/svg" viewBox="0 0 500 500">
  <defs>
    <style>
      .cls-1, .cls-2 {
        fill: #fff;
      }

      .cls-2 {
        font-family: Amin-Bold, 'Amin Bold';
        font-size: 67.97px;
        font-weight: 700;
      }
    </style>
  </defs>
  <text class="cls-2" transform="translate(66.39 351.73)"><tspan x="0" y="0">REAL SPACE</tspan></text>
  <g>
    <g>
      <rect class="cls-1" x="251.81" y="155.98" width="10.9" height="12.22" rx="1.69" ry="1.69"/>
      <rect class="cls-1" x="237.29" y="155.98" width="10.9" height="12.22" rx="1.69" ry="1.69"/>
      <g>
        <rect class="cls-1" x="251.81" y="170.91" width="10.9" height="12.22" rx="1.69" ry="1.69"/>
        <rect class="cls-1" x="237.29" y="170.91" width="10.9" height="12.22" rx="1.69" ry="1.69"/>
      </g>
    </g>
    <path class="cls-1" d="m336.44,209.42l-83.31-83.31c-1.35-1.35-3.53-1.35-4.88,0l-2.44,2.44h0s-82.24,82.25-82.24,82.25c-1.35,1.35-1.35,3.53,0,4.88h0c1.35,1.35,3.53,1.35,4.88,0l79.8-79.8c1.35-1.35,3.53-1.35,4.88,0l78.42,78.42c1.35,1.35,3.53,1.35,4.88,0h0c1.35-1.35,1.35-3.53,0-4.88Z"/>
    <g>
      <path class="cls-1" d="m183.85,281.61v-86.51c0-2.33.8-4.33,2.46-6.06,1.66-1.66,3.66-2.46,6.06-2.46h35.95c9.92,0,17.24,2.06,21.84,6.26,4.79,4.33,7.19,10.65,7.19,18.98,0,5.59-1.2,10.19-3.6,13.85-2.06,3.4-6.53,6.26-13.52,8.66,6.46,2.2,10.39,4.66,11.85,7.26,1.53,2.53,2.46,6.99,2.8,13.38l.6,11.25v.87c0,2.06,0,4.46.27,6.39.33,1.93.8,3.46,1.46,4.73h-17.31c-.67-1.46-1.07-3-1.2-4.53-.33-2.93-.53-4.93-.53-5.93l-.27-10.12c-.33-5.86-1.53-9.99-3.6-12.58-2.33-2.4-6.26-3.6-11.79-3.6h-21.91v40.17h-16.78Zm16.78-53.88h24.1c5.13,0,9.12-1.13,11.85-3.4,2.73-2.2,4.06-5.59,4.06-10.32s-1.46-8.06-4.06-10.39c-2.46-2.33-6.19-3.6-10.72-3.6h-25.23v27.7Z"/>
      <path class="cls-1" d="m254.32,251.7c1,5.33,5.75,9.22,9.28,11.42v-.07c3.93,2.73,9.25,4.13,15.85,4.13,5.93,0,10.52-1.07,13.65-3.2,3.33-2.2,4.99-5.53,4.99-9.99,0-6.66-8.52-11.85-25.63-15.58l-.33-.2-.73-.2c-.47-.2-1.07-.2-1.8-.4-9.12-1.93-15.31-4.06-18.51-6.39-3.13-1.66-5.39-4.26-6.72-7.72-1.8-3.2-2.73-7.26-2.73-12.25,0-8.59,2.93-15.25,8.86-20.11l-.07.07c6.06-4.73,14.78-7.12,26.3-7.12,10.65,0,19.04,2.6,24.9,7.32,5.39,5.06,8.72,11.79,9.32,19.84h-9.52c-3.46,0-6.26-1.93-7.86-5.06-1-1.93-2.4-3.66-4.19-5.13-3.53-2.53-8.26-3.8-14.32-3.8-5.73,0-9.92,1.13-12.65,3.33l.07-.07c-3.13,2.33-4.66,5.53-4.66,9.59,0,5.66,5.66,9.79,16.98,12.38l-.13-.07c3.2.87,5.66,1.46,7.06,1.66,5.66,1.86,10.12,3.06,13.12,3.8l1.4.33,7.32,3.13c3.4,2.13,6.06,4.79,7.92,7.99l-.07-.07c1.93,3.66,2.93,7.66,2.93,11.98,0,9.39-3.13,16.78-9.45,22.04l.07-.07c-6.33,4.93-15.38,7.39-27.1,7.39s-38.72.99-38.72.99c0,0-1.11-19.37-1.84-29.22l17.03-.69Z"/>
      <rect class="cls-1" x="308.23" y="191.2" width="6.91" height="90.41" rx="1.5" ry="1.5"/>
      <rect class="cls-1" x="245.66" y="214.03" width="6.91" height="128.86" rx="1.5" ry="1.5" transform="translate(-29.34 527.58) rotate(-90)"/>
    </g>
  </g>
</svg>